<?xml version="1.0" encoding="utf-8"?>
<!-- Generator: Adobe Illustrator 16.0.0, SVG Export Plug-In . SVG Version: 6.00 Build 0)  -->
<!DOCTYPE svg PUBLIC "-//W3C//DTD SVG 1.1//EN" "http://www.w3.org/Graphics/SVG/1.1/DTD/svg11.dtd">
<svg version="1.1" id="Layer_1" xmlns="http://www.w3.org/2000/svg" xmlns:xlink="http://www.w3.org/1999/xlink" x="0px" y="0px"
	 width="488px" height="304px" viewBox="0 0 488 304" enable-background="new 0 0 488 304" xml:space="preserve">
<path id="path13230_3_" sodipodi:nodetypes="cssscccsssccc" d="M72.05,152.762c2.162,4.159,4.955,7.685,9.752,12.019
	c0.439,0.397-2.064,6.922-3.587,5.288c-5.217-5.588-7.75-10.752-8.687-17.376l0.397-5.486L72.05,152.762z"/>
<path id="path13218-2_4_" sodipodi:nodetypes="cssssssssssssc" stroke="#FFFFFF" stroke-width="3" stroke-miterlimit="10" d="
	M70.124,182.685c0.637-6.435,3.318-11.68,9.523-18.186c7.389-7.746,16.163-13.649,39.842-27.259
	c21.979-12.625,30.062-17.928,37.63-25.354c3.212-3.15,5.81-6.355,7.718-9.641c0.814-1.399,3.158-7.678,3.158-7.502
	c0.008,0.747-2.292,10.755-3.436,13.163c-3.35,7.033-10.144,15.264-18.573,22.158c-7.127,5.83-13.516,10.024-33.975,22.032
	c-5.6,3.29-12.773,7.273-15.706,9.152c-12.96,8.299-20.332,15.452-23.949,22.853c-0.915,1.866-1.727,5.362-1.851,5.051
	c-0.104-0.262-0.379-3.078-0.357-3.274C70.169,185.681,70.018,183.767,70.124,182.685L70.124,182.685z"/>
<path id="path13226-4_6_" sodipodi:nodetypes="cssssssssccccc" fill="#2A3382" d="M70.658,181.408
	c0.517-6.825,3.678-11.539,10.797-18.534c7.335-7.215,15.806-12.627,39.313-26.173c21.713-12.511,29.359-18.566,36.892-25.418
	c5.656-5.149,8.979-11.635,10.265-16.169c0.232-0.821,0.493,2.931,0.541,4.999c0.154,6.415-3.601,13.358-10.239,20.138
	c-7.027,7.181-16.464,13.352-39.619,26.702c-22.743,13.114-30.553,18.644-37.836,26.055c-4.36,4.436-7.133,8.285-8.782,12.643
	l-1.198,3.437l-0.204-2.799l-0.279-2.576L70.658,181.408L70.658,181.408z"/>
<path fill="#2A3382" d="M168.475,89.264c-1.545-11.02-8.124-19.459-25.325-30.796c-2.122-1.397-12.775-7.652-23.472-13.674
	c-0.886-0.499-1.773-0.998-2.655-1.493l-20.18-2.45c5.235,3.15,12.244,7.124,22.53,12.911c10.866,6.121,22.453,13.048,25.348,14.989
	c10.924,7.313,17.473,13.719,21.342,20.871l2.116,5.346L168.475,89.264z"/>
<path id="path13226_6_" sodipodi:nodetypes="cssssssssccccc" stroke="#FFFFFF" stroke-width="3" stroke-miterlimit="10" d="
	M69.882,138.304c0.519-6.825,3.667-12.719,10.783-19.718c7.336-7.211,15.624-12.624,39.129-26.171
	c21.713-12.512,29.928-18.619,37.449-25.484c5.229-4.769,8.732-11.942,10.27-16.169c0.288-0.8,0.248,3.242,0.295,5.312
	c0.152,6.417-3.604,13.234-10.242,20.014c-7.027,7.183-16.402,13.226-39.557,26.574c-22.743,13.116-30.805,18.648-38.087,26.059
	c-4.358,4.436-7.189,8.535-8.84,12.893l-0.892,2.937l-0.328-2.923l-0.154-2.078L69.882,138.304L69.882,138.304z"/>
<path id="path13218_3_" sodipodi:nodetypes="cssssscsssssscc" d="M69.345,139.025c0.637-6.435,3.216-11.739,9.425-18.246
	c7.384-7.746,16.123-13.637,39.804-27.245c21.979-12.629,30.244-18.239,37.814-25.664c3.21-3.152,5.454-5.658,7.363-8.944
	c0.814-1.399,3.563-8.612,3.565-8.437c0.008,0.745-1.829,10.132-3.575,13.22c-4.089,9.01-9.956,15.552-18.385,22.448
	c-7.123,5.828-13.627,9.848-34.084,21.859c-5.602,3.29-12.583,7.519-15.52,9.397c-12.959,8.299-20.182,15.117-23.801,22.516
	c-0.913,1.867-2.019,5.544-2.14,5.232c-0.102-0.261-0.25-3.26-0.226-3.456C69.603,141.512,69.239,140.111,69.345,139.025
	L69.345,139.025L69.345,139.025z"/>
<g>
	<path d="M427.99,142.945c0,7.994-3.85,15.692-13.472,19.985c12.14,3.701,16.58,16.581,16.58,23.095
		c0,23.094-17.32,30.496-38.786,30.496c-16.433,0-32.717,0-49.15,0V112.893c16.285,0,32.718,0,49.15,0
		C412.742,112.893,427.99,122.071,427.99,142.945z M362.408,154.492h29.904c12.287,0,16.284-5.181,16.284-11.103
		c0-4.737-3.849-12.731-16.284-12.731h-29.904V154.492z M362.408,198.312h29.904c7.994,0,19.393-2.665,19.393-12.436
		c0-9.326-11.398-14.212-19.393-14.212h-29.904V198.312z"/>
	<path d="M286.103,142.945c0,7.994-3.849,15.692-13.472,19.985c12.14,3.701,16.58,16.581,16.58,23.095
		c0,23.094-17.32,30.496-38.786,30.496c-16.433,0-32.717,0-49.149,0V112.893c16.284,0,32.717,0,49.149,0
		C270.854,112.893,286.103,122.071,286.103,142.945z M220.521,154.492h29.904c12.287,0,16.284-5.181,16.284-11.103
		c0-4.737-3.849-12.731-16.284-12.731h-29.904V154.492z M220.521,198.312h29.904c7.994,0,19.394-2.665,19.394-12.436
		c0-9.326-11.399-14.212-19.394-14.212h-29.904V198.312z"/>
	<path d="M303.128,216.521V112.893h19.393v103.628H303.128z"/>
</g>
<g>
	<path d="M91.252,174.176h-0.028l-1.72,0.818l-0.347-1.581l2.385-1.109h1.748v9.016h-2.039V174.176z"/>
</g>
<g>
	<path d="M105.823,185.396c0,2.788-1.124,4.702-3.426,4.702c-2.331,0-3.357-2.094-3.371-4.646c0-2.607,1.109-4.674,3.44-4.674
		C104.879,180.778,105.823,182.928,105.823,185.396z M101.148,185.452c-0.014,2.066,0.485,3.052,1.304,3.052
		s1.262-1.026,1.262-3.079c0-1.997-0.43-3.052-1.276-3.052C101.662,182.373,101.135,183.358,101.148,185.452z"/>
</g>
<g>
	<path d="M113.288,191.718h-0.028l-1.72,0.818l-0.347-1.581l2.385-1.109h1.748v9.016h-2.039V191.718z"/>
</g>
<g>
	<path d="M127.858,200.895c0,2.788-1.124,4.702-3.426,4.702c-2.331,0-3.357-2.094-3.371-4.646c0-2.607,1.109-4.674,3.44-4.674
		C126.915,196.276,127.858,198.426,127.858,200.895z M123.184,200.95c-0.014,2.066,0.485,3.052,1.304,3.052s1.262-1.026,1.262-3.079
		c0-1.997-0.43-3.052-1.276-3.052C123.697,197.871,123.17,198.856,123.184,200.95z"/>
</g>
<g>
	<path d="M134.5,203.878h-0.028l-1.72,0.818l-0.347-1.581l2.385-1.109h1.748v9.016H134.5V203.878z"/>
</g>
<g>
	<path d="M149.071,215.099c0,2.788-1.124,4.702-3.426,4.702c-2.331,0-3.357-2.094-3.371-4.646c0-2.607,1.109-4.674,3.44-4.674
		C148.127,210.48,149.071,212.63,149.071,215.099z M144.396,215.154c-0.014,2.066,0.485,3.052,1.304,3.052s1.262-1.026,1.262-3.079
		c0-1.997-0.43-3.052-1.276-3.052C144.91,212.075,144.383,213.061,144.396,215.154z"/>
</g>
<g>
	<path d="M156.155,221.878h-0.028l-1.72,0.818l-0.347-1.581l2.385-1.109h1.748v9.016h-2.039V221.878z"/>
</g>
<g>
	<path d="M170.725,233.099c0,2.788-1.124,4.702-3.426,4.702c-2.331,0-3.357-2.094-3.371-4.646c0-2.607,1.109-4.674,3.44-4.674
		C169.782,228.48,170.725,230.63,170.725,233.099z M166.051,233.154c-0.014,2.066,0.485,3.052,1.304,3.052s1.262-1.026,1.262-3.079
		c0-1.997-0.43-3.052-1.276-3.052C166.564,230.075,166.037,231.061,166.051,233.154z"/>
</g>
<g>
	<g>
		<path fill="#2A3382" d="M74.897,200.752h-0.028l-1.72,0.818l-0.347-1.581l2.385-1.109h1.748v9.016h-2.039V200.752z"/>
	</g>
</g>
<g>
	<g>
		<path fill="#2A3382" d="M89.467,211.973c0,2.788-1.124,4.702-3.426,4.702c-2.331,0-3.357-2.094-3.371-4.646
			c0-2.607,1.109-4.674,3.44-4.674C88.524,207.354,89.467,209.504,89.467,211.973z M84.793,212.028
			c-0.014,2.066,0.485,3.052,1.304,3.052s1.262-1.026,1.262-3.079c0-1.997-0.43-3.052-1.276-3.052
			C85.306,208.949,84.779,209.935,84.793,212.028z"/>
	</g>
</g>
<g>
	<g>
		<path fill="#2A3382" d="M96.934,218.294h-0.028l-1.72,0.818l-0.347-1.581l2.385-1.109h1.748v9.016h-2.039V218.294z"/>
	</g>
</g>
<g>
	<g>
		<path fill="#2A3382" d="M111.504,227.471c0,2.788-1.124,4.702-3.426,4.702c-2.331,0-3.357-2.094-3.371-4.646
			c0-2.607,1.109-4.674,3.44-4.674C110.561,222.853,111.504,225.002,111.504,227.471z M106.83,227.526
			c-0.014,2.066,0.485,3.052,1.304,3.052s1.262-1.026,1.262-3.079c0-1.997-0.43-3.052-1.276-3.052
			C107.343,224.447,106.816,225.433,106.83,227.526z"/>
	</g>
</g>
<g>
	<g>
		<path fill="#2A3382" d="M118.145,230.454h-0.028l-1.72,0.818l-0.347-1.581l2.385-1.109h1.748v9.016h-2.039V230.454z"/>
	</g>
</g>
<g>
	<g>
		<path fill="#2A3382" d="M132.715,241.675c0,2.788-1.124,4.702-3.426,4.702c-2.331,0-3.357-2.094-3.371-4.646
			c0-2.607,1.109-4.674,3.44-4.674C131.772,237.057,132.715,239.206,132.715,241.675z M128.041,241.73
			c-0.014,2.066,0.485,3.052,1.304,3.052s1.262-1.026,1.262-3.079c0-1.997-0.43-3.052-1.276-3.052
			C128.554,238.651,128.027,239.637,128.041,241.73z"/>
	</g>
</g>
<g>
	<g>
		<path fill="#2A3382" d="M139.8,248.454h-0.028l-1.72,0.818l-0.347-1.581l2.385-1.109h1.748v9.016H139.8V248.454z"/>
	</g>
</g>
<g>
	<g>
		<path fill="#2A3382" d="M154.371,261.72c0,2.788-1.124,4.702-3.426,4.702c-2.331,0-3.357-2.094-3.371-4.646
			c0-2.607,1.109-4.674,3.44-4.674C153.427,257.102,154.371,259.251,154.371,261.72z M149.696,261.775
			c-0.014,2.066,0.485,3.052,1.304,3.052s1.262-1.026,1.262-3.079c0-1.997-0.43-3.052-1.276-3.052
			C150.209,258.696,149.683,259.682,149.696,261.775z"/>
	</g>
</g>
</svg>
